<?xml version="1.0" encoding="UTF-8"?>
<svg width="127px" height="17px" viewBox="0 0 127 17" version="1.1" xmlns="http://www.w3.org/2000/svg" xmlns:xlink="http://www.w3.org/1999/xlink">
    <!-- Generator: Sketch 50.2 (55047) - http://www.bohemiancoding.com/sketch -->
    <title>build-logo</title>
    <desc>Created with Sketch.</desc>
    <defs></defs>
    <g id="build-logo" stroke="none" stroke-width="1" fill="none" fill-rule="evenodd">
        <g id="Group" fill="#FFFFFF">
            <text id="SUPERFIT-BUILD" font-family="Gilroy-Bold, Gilroy" font-size="14" font-weight="bold" letter-spacing="0.300000012">
                <tspan x="21" y="13">SUPERFIT BUILD</tspan>
            </text>
            <g id="SuperFit" transform="translate(0.000000, 1.000000)">
                <path d="M9.52208854,13.8638997 C11.3789092,12.4301883 13.2804746,10.9980595 14.9153539,9.31499171 C16.2757032,7.91451609 17.6305262,6.11907962 17.6305262,4.09169597 C17.6305262,3.75054545 17.5795421,3.41150515 17.4798913,3.08495025 C17.3846971,2.77263926 17.2485018,2.47457219 17.0750488,2.1969038 C17.0081989,2.08998653 16.9360011,1.98658627 16.8591684,1.88670303 C16.4295469,1.3287285 15.8729998,0.907214178 15.2399766,0.595079042 C14.4415223,0.201349144 13.5414563,0 12.6495906,0 C11.3655392,0 10.2185745,0.287516027 9.22260134,1.11893852 L9.21226191,1.12755521 L9.2028138,1.13705115 C9.06679669,1.27104944 8.93719717,1.41595049 8.82150242,1.57087503 C8.70224234,1.41612634 8.56569043,1.2729838 8.4277124,1.13705115 L8.41826429,1.12755521 L8.40792486,1.11893852 C7.41195165,0.287516027 6.26498698,0 4.98093562,0 C2.95850569,0 0.766722884,1.06547988 0.150634931,3.08495025 C0.0509841304,3.41150515 0,3.75054545 0,4.09169597 C0,6.11907962 1.35482304,7.91451609 2.71517234,9.31499171 C4.35005157,10.9980595 6.25161702,12.4301883 8.10843766,13.8638997 L8.8152631,14.4095647 L9.52208854,13.8638997 Z M8.8152631,12.9732155 C4.98093562,10.0127676 1.14660813,7.05214386 1.14660813,4.09169597 C1.14660813,2.45751466 2.86438114,1.13107222 4.98093562,1.13107222 C6.16801018,1.13107222 6.98749985,1.41489538 7.66705057,1.98236585 C7.92785401,2.20006912 7.93444986,2.669239 7.96279418,3.15616981 C8.01431311,4.03911659 8.15532166,4.40066579 7.25489914,4.5274542 C7.04900169,4.55646958 6.85183928,4.56807573 6.72562682,4.57510977 C5.99883556,4.6157313 5.19449851,3.99040592 4.2876584,3.77534041 C3.19239093,3.51578466 2.94763145,4.2569957 3.67192698,4.8186631 C4.33258148,5.33091642 5.55388315,5.85723781 6.59691863,6.49891731 C7.48789305,7.04722004 8.38189799,7.59323672 8.72470388,8.75103826 C8.7667747,8.0956424 8.66320204,7.61451466 8.16049138,6.89352646 C8.46800056,6.32447333 8.77319228,5.49691956 9.69981994,5.16456158 C9.57039868,3.63342883 10.0770312,2.39368083 10.9302132,1.70997299 C11.9561351,0.888046443 13.4508971,1.03892641 14.5827091,1.54643177 C15.6384015,2.01982207 16.4839181,2.88711812 16.4839181,4.09169597 C16.4839181,7.05214386 12.6495906,10.0127676 8.8152631,12.9732155 L8.8152631,12.9732155 Z" id="Fill-1"></path>
            </g>
        </g>
    </g>
</svg>